<svg width="1200" height="640" viewBox="0 0 1200 640" fill="none" xmlns="http://www.w3.org/2000/svg">
<defs>
  <linearGradient id="bg" x1="0" y1="0" x2="1200" y2="640" gradientUnits="userSpaceOnUse"><stop stop-color="#071014"/><stop offset="1" stop-color="#10252B"/></linearGradient>
  <linearGradient id="mint" x1="250" y1="120" x2="950" y2="520" gradientUnits="userSpaceOnUse"><stop stop-color="#9CF2CF"/><stop offset="1" stop-color="#5FC3E4"/></linearGradient>
  <filter id="glow" x="-30%" y="-30%" width="160%" height="160%"><feGaussianBlur stdDeviation="12" result="blur"/><feMerge><feMergeNode in="blur"/><feMergeNode in="SourceGraphic"/></feMerge></filter>
</defs>
<rect width="1200" height="640" rx="28" fill="url(#bg)"/>
<path d="M0 95H1200M0 190H1200M0 285H1200M0 380H1200M0 475H1200M0 570H1200M120 0V640M240 0V640M360 0V640M480 0V640M600 0V640M720 0V640M840 0V640M960 0V640M1080 0V640" stroke="#9CF2CF" stroke-opacity=".06"/>
<text x="64" y="74" fill="#9CF2CF" font-family="Arial, sans-serif" font-size="14" font-weight="700" letter-spacing="3">EDGE | AGENCY · PORTFOLIO MAP</text>
<text x="64" y="118" fill="#F1FAF7" font-family="Arial, sans-serif" font-size="32" font-weight="800">Practical AI systems with a human boundary.</text>
<text x="64" y="150" fill="#9AAFAA" font-family="Arial, sans-serif" font-size="15">A connected portfolio across local AI, agent workflows, governance, automation, and spatial computing.</text>
<path d="M600 338C470 240 350 233 240 260M600 338C744 238 850 238 978 270M600 338C480 397 350 430 222 466M600 338C730 400 838 426 1000 465M600 338C604 250 605 214 600 185" stroke="url(#mint)" stroke-opacity=".45" stroke-width="2" stroke-dasharray="6 8"/>
<circle cx="600" cy="338" r="76" fill="#9CF2CF" fill-opacity=".08" stroke="#9CF2CF" stroke-opacity=".45"/><circle cx="600" cy="338" r="48" fill="#9CF2CF" fill-opacity=".1" filter="url(#glow)"/>
<text x="600" y="329" text-anchor="middle" fill="#F1FAF7" font-family="Arial, sans-serif" font-size="18" font-weight="800">EDGE</text><text x="600" y="353" text-anchor="middle" fill="#9CF2CF" font-family="Arial, sans-serif" font-size="12" font-weight="700" letter-spacing="2">OPERATING SYSTEMS</text>
<g font-family="Arial, sans-serif"><rect x="144" y="218" width="210" height="78" rx="16" fill="#0C191C" stroke="#9CF2CF" stroke-opacity=".3"/><text x="168" y="248" fill="#9CF2CF" font-size="11" font-weight="700" letter-spacing="1.5">LOCAL AI</text><text x="168" y="274" fill="#F1FAF7" font-size="16" font-weight="700">ModelDock USB</text><rect x="846" y="218" width="210" height="78" rx="16" fill="#0C191C" stroke="#5FC3E4" stroke-opacity=".35"/><text x="870" y="248" fill="#7CDDF4" font-size="11" font-weight="700" letter-spacing="1.5">SPATIAL COMPUTING</text><text x="870" y="274" fill="#F1FAF7" font-size="16" font-weight="700">SPLATwalk</text><rect x="116" y="426" width="250" height="78" rx="16" fill="#0C191C" stroke="#BBA6FF" stroke-opacity=".35"/><text x="140" y="456" fill="#C7B8FF" font-size="11" font-weight="700" letter-spacing="1.5">AUTOMATION</text><text x="140" y="482" fill="#F1FAF7" font-size="16" font-weight="700">73+ workflow portfolio</text><rect x="834" y="426" width="250" height="78" rx="16" fill="#0C191C" stroke="#F4C978" stroke-opacity=".35"/><text x="858" y="456" fill="#F4D58F" font-size="11" font-weight="700" letter-spacing="1.5">GOVERNANCE</text><text x="858" y="482" fill="#F1FAF7" font-size="16" font-weight="700">AI Governance</text><rect x="495" y="142" width="210" height="70" rx="16" fill="#0C191C" stroke="#9CF2CF" stroke-opacity=".3"/><text x="600" y="171" text-anchor="middle" fill="#9CF2CF" font-size="11" font-weight="700" letter-spacing="1.5">NEW FRONTIER</text><text x="600" y="196" text-anchor="middle" fill="#F1FAF7" font-size="16" font-weight="700">TraceForge</text></g>
<text x="64" y="596" fill="#607873" font-family="monospace" font-size="12">LOCAL-FIRST · HUMAN-LED · INSPECTABLE · PORTABLE</text>
</svg>
